<?xml version="1.0" ?><svg data-name="Layer 1" id="Layer_1" viewBox="0 0 128 128" xmlns="http://www.w3.org/2000/svg"><defs><style>.cls-1{fill:#ffc73e;}.cls-2{fill:#133046;}.cls-3{fill:#f7b294;}.cls-4{fill:#ff9100;}.cls-5,.cls-8{fill:none;stroke-linecap:round;stroke-linejoin:round;}.cls-5{stroke:#f7b294;stroke-width:20px;}.cls-6{fill:#f7ccad;}.cls-7{fill:#fff;}.cls-8{stroke:#20455b;stroke-width:4px;}</style></defs><title/><path class="cls-1" d="M90.15,97H37.85a14,14,0,0,0-13.56,10.5L19,128h90l-5.29-20.5A14,14,0,0,0,90.15,97Z"/><path class="cls-2" d="M64,9.06h0a35,35,0,0,0-35,35V55H99V44.06A35,35,0,0,0,64,9.06Z"/><circle class="cls-3" cx="92" cy="59" r="8"/><circle class="cls-3" cx="36" cy="59" r="8"/><path class="cls-4" d="M80.25,97a16.25,16.25,0,0,1-32.5,0"/><line class="cls-5" x1="64" x2="64" y1="79" y2="97"/><rect class="cls-6" height="75" rx="28" ry="28" width="56" x="36" y="16"/><path class="cls-2" d="M53,66H75a4,4,0,0,1,4,4V81A15,15,0,0,1,64,96h0A15,15,0,0,1,49,81V70a4,4,0,0,1,4-4Z"/><path class="cls-7" d="M64,79a7,7,0,0,0,7-7H57A7,7,0,0,0,64,79Z"/><circle class="cls-2" cx="51" cy="57" r="3"/><circle class="cls-2" cx="77" cy="57" r="3"/><line class="cls-8" x1="75" x2="81" y1="46" y2="47"/><line class="cls-8" x1="47" x2="53" y1="47" y2="46"/><path class="cls-2" d="M38,24,33,13l9-1L39,3l13.12.32a53.39,53.39,0,0,1,30.3,10.94L86,17,44,25Z"/><path class="cls-2" d="M37.16,51S35.5,32.72,63.76,32.72,90.35,51,90.35,51h3.33V44.75A30.75,30.75,0,0,0,62.93,14h0A30.75,30.75,0,0,0,32.18,44.75V51Z"/><circle class="cls-2" cx="64" cy="32" r="10"/><circle class="cls-2" cx="76" cy="32" r="7"/><circle class="cls-2" cx="52" cy="32" r="7"/></svg>