<?xml version="1.0" ?><svg data-name="Layer 1" id="Layer_1" viewBox="0 0 128 128" xmlns="http://www.w3.org/2000/svg"><defs><style>.cls-1{fill:#8e769f;}.cls-2{fill:#986458;}.cls-10,.cls-3{fill:#133046;}.cls-3{opacity:0.3;}.cls-4{fill:#84514c;}.cls-5{fill:#c2afd3;}.cls-11,.cls-6{fill:none;stroke-linecap:round;stroke-linejoin:round;}.cls-6{stroke:#84514c;stroke-width:22px;}.cls-7{fill:#892536;}.cls-8{fill:#e8344a;}.cls-9{fill:#fff;}.cls-11{stroke:#20455b;stroke-width:4px;}</style></defs><title/><path class="cls-1" d="M90.15,97H37.85a14,14,0,0,0-13.56,10.5L19,128h90l-5.29-20.5A14,14,0,0,0,90.15,97Z"/><path class="cls-2" d="M75.11,10.51h0a29.56,29.56,0,0,0-22.22,0h0C40.26,15.64,32,24.92,32,38.55V53H96V38.55C96,24.92,87.74,15.64,75.11,10.51Z"/><path class="cls-3" d="M75.11,10.51h0a29.56,29.56,0,0,0-22.22,0h0C40.26,15.64,32,24.92,32,38.55V53H96V38.55C96,24.92,87.74,15.64,75.11,10.51Z"/><circle class="cls-4" cx="92" cy="59" r="8"/><circle class="cls-4" cx="36" cy="59" r="8"/><path class="cls-5" d="M80,116l-16-6V92H75a5,5,0,0,1,5,5"/><path class="cls-5" d="M48,116l16-6V92H53a5,5,0,0,0-5,5Z"/><line class="cls-6" x1="64" x2="64" y1="79" y2="97"/><rect class="cls-2" height="75" rx="28" ry="28" width="56" x="36" y="16"/><path class="cls-7" d="M64,80A14,14,0,0,1,50,66H78A14,14,0,0,1,64,80Z"/><path class="cls-8" d="M64,80a14,14,0,0,0,9.71-3.94A9.17,9.17,0,0,0,66.88,73a9.27,9.27,0,0,0-8.58,5.78A13.91,13.91,0,0,0,64,80Z"/><path class="cls-9" d="M55,66H73a0,0,0,0,1,0,0v2a2,2,0,0,1-2,2H57a2,2,0,0,1-2-2V66A0,0,0,0,1,55,66Z"/><path class="cls-3" d="M64,16A28,28,0,0,0,36,44v7h.09a3,3,0,0,0,3-2.66c.6-5.39,1.79-16.05,3.38-17.61,3.39-3.31,39.17-2.91,42.54,0,1.86,1.61,3.24,12.23,3.92,17.65a3,3,0,0,0,3,2.62H92V44A28,28,0,0,0,64,16Z"/><circle class="cls-10" cx="51" cy="55" r="3"/><circle class="cls-10" cx="77" cy="55" r="3"/><line class="cls-11" x1="75" x2="81" y1="44" y2="45"/><line class="cls-11" x1="47" x2="53" y1="45" y2="44"/></svg>