<?xml version="1.0" ?><svg data-name="Layer 1" id="Layer_1" viewBox="0 0 128 128" xmlns="http://www.w3.org/2000/svg"><defs><style>.cls-1{fill:#23b2ff;}.cls-2{fill:#bfdfee;}.cls-3{fill:#133046;}.cls-4{fill:#e2edf2;}.cls-11,.cls-5{fill:none;stroke-linecap:round;stroke-linejoin:round;}.cls-5{stroke:#f7b294;stroke-width:20px;}.cls-6{fill:#e96043;}.cls-7{fill:#f7b294;}.cls-8{fill:#f7ccad;}.cls-9{fill:#892536;}.cls-10{fill:#e8344a;}.cls-11{stroke:#e96043;stroke-width:4px;opacity:0.5;}</style></defs><title/><path class="cls-1" d="M90.15,97H37.85a14,14,0,0,0-13.56,10.5L19,128h90l-5.29-20.5A14,14,0,0,0,90.15,97Z"/><path class="cls-2" d="M78.73,106H49.27a122.55,122.55,0,0,0,5.29,22H73.44A122.55,122.55,0,0,0,78.73,106Z"/><rect class="cls-3" height="8" rx="2" ry="2" width="10" x="59" y="108"/><path class="cls-4" d="M75,92H53a5,5,0,0,0-5,5v17l16-6,16,6V97A5,5,0,0,0,75,92Z"/><line class="cls-5" x1="64" x2="64" y1="79" y2="97"/><path class="cls-6" d="M28,52.82V41C28,21.39,34.71,5.46,63.5,5.46,94.07,5.46,99,21.39,99,41V52.82"/><ellipse class="cls-7" cx="34.06" cy="51.97" rx="8" ry="7.27"/><circle class="cls-7" cx="93.94" cy="51.97" r="8"/><path class="cls-8" d="M34,40.71A30,30,0,0,1,67.67,10.93C82.82,12.73,94,26,94,41.23v18c0,15.25-11.18,28.5-26.33,30.29A30,30,0,0,1,34,59.71Z"/><path class="cls-6" d="M36.44,45.2c0-16-1.69-18.6,27.06-18.6s27.06,4.47,27.06,18.6,3.38,0,3.38,0l3.39-6.76L87.18,18.14,69.42,7.87,48.28,10.41,34.75,23.22,30.36,36.31l2.74,8.88S36.44,61.2,36.44,45.2Z"/><path class="cls-9" d="M76.17,66a12.17,12.17,0,0,1-24.34,0Z"/><circle class="cls-6" cx="54.86" cy="24.56" r="8.2"/><circle class="cls-6" cx="70.37" cy="26.56" r="13.95"/><circle class="cls-6" cx="86.31" cy="34.53" r="6.64"/><path class="cls-6" d="M51.7,2l7.44,3.28A5.1,5.1,0,1,1,55,14.56a5.17,5.17,0,0,1-2.16-1.8L48.3,6A2.76,2.76,0,0,1,51.7,2Z"/><path class="cls-6" d="M63.65,4.13l-3.6,7.76a5.07,5.07,0,1,1-7.49-6.31l7-4.87a2.75,2.75,0,0,1,4.06,3.42Z"/><polygon class="cls-3" points="68 128 60 128 61 115 67 115 68 128"/><path class="cls-10" d="M72.05,75.11a12,12,0,0,0-16.1,0,12.12,12.12,0,0,0,16.1,0Z"/><circle class="cls-3" cx="51" cy="55" r="3"/><circle class="cls-3" cx="77" cy="55" r="3"/><line class="cls-11" x1="75" x2="81" y1="44" y2="45"/><line class="cls-11" x1="47" x2="53" y1="45" y2="44"/></svg>