<?xml version="1.0" ?><svg data-name="Layer 1" id="Layer_1" viewBox="0 0 128 128" xmlns="http://www.w3.org/2000/svg"><defs><style>.cls-1{fill:#133046;}.cls-2{fill:#f7b294;}.cls-3{fill:#bfdfee;}.cls-4{fill:#e2edf2;}.cls-5,.cls-7{fill:none;stroke-linecap:round;stroke-linejoin:round;}.cls-5{stroke:#f7b294;stroke-width:20px;}.cls-6{fill:#f7ccad;}.cls-7{stroke:#20455b;stroke-width:4px;}.cls-8{fill:#892536;}.cls-9{fill:#e8344a;}</style></defs><title/><path class="cls-1" d="M90.15,97H37.85a14,14,0,0,0-13.56,10.5L19,128h90l-5.29-20.5A14,14,0,0,0,90.15,97Z"/><path class="cls-1" d="M64,4.64h0a36,36,0,0,0-36,36V55.27a4.5,4.5,0,0,0,4.5,4.5h63a4.5,4.5,0,0,0,4.5-4.5V40.64A36,36,0,0,0,64,4.64Z"/><circle class="cls-2" cx="92" cy="59" r="8"/><circle class="cls-2" cx="36" cy="59" r="8"/><path class="cls-3" d="M73.73,113l-6.55,8.57a4,4,0,0,1-6.36,0L54.27,113,64,100.27Z"/><path class="cls-4" d="M80,116l-16-6V92H75a5,5,0,0,1,5,5Z"/><path class="cls-4" d="M48,116l16-6V92H53a5,5,0,0,0-5,5Z"/><line class="cls-5" x1="64" x2="64" y1="79" y2="97"/><path class="cls-6" d="M64,91h0A28,28,0,0,1,36,63V38A22,22,0,0,1,58,16H70A22,22,0,0,1,92,38V63A28,28,0,0,1,64,91Z"/><path class="cls-1" d="M55,56.5a4,4,0,0,1-8,0"/><path class="cls-1" d="M81,56.5a4,4,0,0,1-8,0"/><line class="cls-7" x1="75" x2="81" y1="49" y2="50"/><line class="cls-7" x1="47" x2="53" y1="50" y2="49"/><path class="cls-1" d="M64,10h0C46.33,10,32,29.33,32,47c6-3,16-6,23.33-6L63,31V41c11,0,22,1,33,6C96,29.33,81.67,10,64,10Z"/><path class="cls-8" d="M76.17,68a12.17,12.17,0,0,1-24.34,0Z"/><path class="cls-9" d="M72.05,77.11a12,12,0,0,0-16.1,0,12.12,12.12,0,0,0,16.1,0Z"/></svg>