<?xml version="1.0" ?><svg data-name="Layer 1" id="Layer_1" viewBox="0 0 128 128" xmlns="http://www.w3.org/2000/svg"><defs><style>.cls-1{fill:#ff6674;}.cls-2{fill:#ffc73e;}.cls-3{fill:#ffdba6;}.cls-4{fill:#ea4458;}.cls-5{fill:#ffe9c4;}.cls-6{fill:#ff9100;}.cls-11,.cls-7,.cls-9{fill:none;stroke-linecap:round;stroke-linejoin:round;}.cls-7{stroke:#ffdba6;stroke-width:20px;}.cls-8{fill:#133046;}.cls-9{stroke:#ffc73e;}.cls-11,.cls-9{stroke-width:4px;}.cls-10{fill:#e8344a;}.cls-11{stroke:#fab33f;}</style></defs><title/><path class="cls-1" d="M88,100.1H40.38a12.56,12.56,0,0,0-12.25,9.39L23.35,128h81.3l-4.78-18.51A12.12,12.12,0,0,0,88,100.1Z"/><path class="cls-2" d="M102,91V44.8a38,38,0,0,0-38-38h0a38,38,0,0,0-38,38V91a4,4,0,0,0,4,4H98A4,4,0,0,0,102,91Z"/><circle class="cls-3" cx="92" cy="63" r="8"/><circle class="cls-3" cx="36" cy="63" r="8"/><polyline class="cls-4" points="87.71 100.1 64 128 40.29 100.1"/><polyline class="cls-5" points="80.48 100 64 119.19 47.52 100"/><rect class="cls-6" height="40" width="54" x="37" y="55"/><line class="cls-7" x1="64" x2="64" y1="83" y2="100"/><rect class="cls-5" height="75" rx="28" ry="28" width="56" x="36" y="20"/><circle class="cls-8" cx="77" cy="60" r="3"/><line class="cls-9" x1="75" x2="81" y1="52" y2="53"/><circle class="cls-8" cx="51" cy="60" r="3"/><path class="cls-2" d="M94,42h0v0Z"/><path class="cls-2" d="M35,42.17V42h0Z"/><path class="cls-2" d="M93,43c0-.39,0,0,0,0h.5A29,29,0,0,0,64.33,14.37h0A29,29,0,0,0,35.17,42.93L34,43.16V95h5V42H64.67c0,.06,0,.11,0,.17A12.82,12.82,0,0,0,77.49,55H89V95h5V43Z"/><circle class="cls-5" cx="51.83" cy="42" r="12.83"/><path class="cls-10" d="M70,80a6,6,0,0,1-12,0"/><circle class="cls-10" cx="61" cy="80" r="3"/><circle class="cls-10" cx="67" cy="80" r="3"/><line class="cls-11" x1="47" x2="53" y1="51" y2="50"/></svg>