<?xml version="1.0" ?><svg data-name="Layer 1" id="Layer_1" viewBox="0 0 128 128" xmlns="http://www.w3.org/2000/svg"><defs><style>.cls-1{fill:#133046;}.cls-2{fill:#8e769f;}.cls-3{fill:#f7b294;}.cls-4{fill:#e2edf2;}.cls-5,.cls-6,.cls-8{fill:none;stroke-linecap:round;stroke-linejoin:round;}.cls-5{stroke:#634a93;stroke-width:10px;}.cls-6{stroke:#f7b294;stroke-width:20px;}.cls-7{fill:#f7ccad;}.cls-8{stroke:#20455b;stroke-width:4px;}.cls-9{fill:#fff;}</style></defs><title/><circle class="cls-1" cx="27" cy="75" r="20"/><path class="cls-2" d="M88.12,100H40.26A12.68,12.68,0,0,0,28,109.51L23.21,128h81.58l-4.86-18.85A12.2,12.2,0,0,0,88.12,100Z"/><rect class="cls-1" height="83.2" rx="38" ry="38" width="76" x="26" y="6.8"/><circle class="cls-3" cx="92" cy="63" r="8"/><path class="cls-4" d="M87,100a23,23,0,0,1-46,0"/><path class="cls-5" d="M74,100a10,10,0,0,1-20,0"/><circle class="cls-3" cx="36" cy="63" r="8"/><line class="cls-6" x1="64" x2="64" y1="83" y2="100"/><rect class="cls-7" height="75" rx="28" ry="28" width="56" x="36" y="20"/><circle class="cls-1" cx="77" cy="62" r="3"/><line class="cls-8" x1="75" x2="81" y1="54" y2="55"/><circle class="cls-1" cx="51" cy="62" r="3"/><line class="cls-8" x1="47" x2="53" y1="55" y2="54"/><path class="cls-1" d="M94.5,43c-.09-15.83-14.11-28.63-30.17-28.63h0c-16,0-30,12.77-30.16,28.56l-.17.23V54.5L36,59h2s0-17,3-17h.09A6,6,0,0,0,47,47H81a6,6,0,0,0,5.91-5H87c3,0,3,17,3,17h2l2-4.5V43Z"/><path class="cls-9" d="M76.17,74a12.17,12.17,0,0,1-24.34,0Z"/></svg>