<?xml version="1.0" ?><svg data-name="Layer 1" id="Layer_1" viewBox="0 0 128 128" xmlns="http://www.w3.org/2000/svg"><defs><style>.cls-1{fill:#e96043;}.cls-2{fill:#5ab77b;}.cls-3{fill:#ce452e;}.cls-4{fill:#ffdba6;}.cls-5{fill:#fff;}.cls-6,.cls-9{fill:none;stroke-linecap:round;stroke-linejoin:round;}.cls-6{stroke:#ffdba6;stroke-width:20px;}.cls-7{fill:#ffe9c4;}.cls-8{fill:#133046;}.cls-9{stroke:#e96043;stroke-width:4px;opacity:0.5;}.cls-10{fill:#ffc73e;}.cls-11{fill:#e8344a;}</style></defs><title/><path class="cls-1" d="M110,73a9,9,0,0,0-8-8.94c0-.13,0-.26,0-.39V44.8a38,38,0,0,0-38-38h0a38,38,0,0,0-38,38V63.67c0,.13,0,.26,0,.39A9,9,0,0,0,27,82,9,9,0,0,0,35,95H93a9,9,0,0,0,8-13A9,9,0,0,0,110,73Z"/><path class="cls-1" d="M110,73a9,9,0,0,0-8-8.94c0-.13,0-.26,0-.39V44.8a38,38,0,0,0-38-38h0a38,38,0,0,0-38,38V63.67c0,.13,0,.26,0,.39A9,9,0,0,0,27,82,9,9,0,0,0,35,95h3a9,9,0,0,0,18,0H72a9,9,0,0,0,18,0h3a9,9,0,0,0,8-13A9,9,0,0,0,110,73Z"/><path class="cls-2" d="M88,100.1H40.38a12.56,12.56,0,0,0-12.25,9.39L23.35,128h81.3l-4.78-18.51A12.12,12.12,0,0,0,88,100.1Z"/><path class="cls-3" d="M99,72a7,7,0,0,0-11-5.74V58.62H40v7.64a7,7,0,1,0-7,12.08A7,7,0,0,0,39,89a6.63,6.63,0,0,0,1-.08v.16a8.31,8.31,0,0,0,16.62,0H71.38a8.31,8.31,0,0,0,16.62,0v-.16A6.63,6.63,0,0,0,89,89a7,7,0,0,0,6-10.66A7,7,0,0,0,99,72Z"/><circle class="cls-4" cx="92" cy="63" r="8"/><circle class="cls-5" cx="56" cy="105" r="11"/><circle class="cls-5" cx="72" cy="105" r="11"/><circle class="cls-4" cx="36" cy="63" r="8"/><line class="cls-6" x1="64" x2="64" y1="83" y2="100"/><rect class="cls-7" height="75" rx="28" ry="28" width="56" x="36" y="20"/><circle class="cls-8" cx="77" cy="62" r="3"/><line class="cls-9" x1="75" x2="81" y1="54" y2="55"/><circle class="cls-8" cx="51" cy="62" r="3"/><path class="cls-10" d="M94,44h0v0Z"/><path class="cls-10" d="M35,44.17V44h0Z"/><path class="cls-11" d="M67,77a3,3,0,0,0-3,3,3,3,0,0,0-6,0,6,6,0,0,0,12,0A3,3,0,0,0,67,77Z"/><line class="cls-9" x1="47" x2="53" y1="55" y2="54"/><path class="cls-1" d="M90.64,30.36a28,28,0,0,0-53.28,0,10,10,0,1,0,12.32,12.1A10,10,0,0,0,64,38.34a10,10,0,0,0,14.32,4.12,10,10,0,1,0,12.32-12.1Z"/><circle class="cls-5" cx="64" cy="118" r="2"/><circle class="cls-5" cx="64" cy="124" r="2"/></svg>