<?xml version="1.0" ?><svg data-name="Layer 1" id="Layer_1" viewBox="0 0 128 128" xmlns="http://www.w3.org/2000/svg"><defs><style>.cls-1{fill:#986458;}.cls-2{fill:#133046;}.cls-3{fill:#84514c;}.cls-4,.cls-5,.cls-9{fill:none;}.cls-4{stroke:#84514c;stroke-width:20px;}.cls-4,.cls-5{stroke-linecap:round;stroke-linejoin:round;}.cls-5{stroke:#20455b;stroke-width:4px;}.cls-6{fill:#e8344a;}.cls-7{fill:#3f9e75;}.cls-8{fill:#5ab77b;}.cls-9{stroke:#5ce5a6;stroke-miterlimit:10;stroke-width:3px;}</style></defs><title/><path class="cls-1" d="M88,100.1H40.38a12.56,12.56,0,0,0-12.25,9.39L23.35,128h81.3l-4.78-18.51A12.12,12.12,0,0,0,88,100.1Z"/><path class="cls-2" d="M99,62.87V44.93a35,35,0,0,0-35-35h0a35,35,0,0,0-35,35V62.87C29,63,99,63,99,62.87Z"/><circle class="cls-3" cx="92" cy="63" r="8"/><circle class="cls-3" cx="36" cy="63" r="8"/><line class="cls-4" x1="64" x2="64" y1="83" y2="100"/><rect class="cls-1" height="75" rx="28" ry="28" width="56" x="36" y="20"/><circle class="cls-2" cx="77" cy="65" r="3"/><line class="cls-5" x1="75" x2="81" y1="55" y2="56"/><circle class="cls-2" cx="51" cy="65" r="3"/><circle class="cls-2" cx="38" cy="20" r="20"/><path class="cls-6" d="M67,77a3,3,0,0,0-3,3,3,3,0,0,0-6,0,6,6,0,0,0,12,0A3,3,0,0,0,67,77Z"/><path class="cls-7" d="M25.57,35.65a20,20,0,0,0,28-28.13A35,35,0,0,0,25.57,35.65Z"/><line class="cls-5" x1="47" x2="53" y1="56" y2="55"/><path class="cls-2" d="M64,9.93h0A35,35,0,0,0,29,43.71,30.37,30.37,0,0,0,70.44,41.1,30.4,30.4,0,0,0,99,43.59,35,35,0,0,0,64,9.93Z"/><polygon class="cls-8" points="80 100 80 114 48 114 48 100 40 100 40 128 88 128 88 100 80 100"/><line class="cls-9" x1="40" x2="48" y1="105.5" y2="105.5"/><line class="cls-9" x1="80" x2="88" y1="105.5" y2="105.5"/><line class="cls-9" x1="40" x2="48" y1="112.5" y2="112.5"/><line class="cls-9" x1="40" x2="88" y1="119.5" y2="119.5"/><line class="cls-9" x1="40" x2="88" y1="126.5" y2="126.5"/><line class="cls-9" x1="80" x2="88" y1="112.5" y2="112.5"/></svg>