<?xml version="1.0" ?><svg data-name="Layer 1" id="Layer_1" viewBox="0 0 128 128" xmlns="http://www.w3.org/2000/svg"><defs><style>.cls-1{fill:#133046;}.cls-2,.cls-7,.cls-8,.cls-9{fill:none;stroke-linecap:round;stroke-linejoin:round;}.cls-2{stroke:#e8344a;}.cls-2,.cls-9{stroke-width:4px;}.cls-3{fill:#ff6674;}.cls-4{fill:#ffc73e;}.cls-5{fill:#ffe9c4;}.cls-6{fill:#ffdba6;}.cls-7{stroke:#ffe9c4;}.cls-7,.cls-8{stroke-width:20px;}.cls-8{stroke:#ffdba6;}.cls-9{stroke:#20455b;}</style></defs><title/><circle class="cls-1" cx="64" cy="15" r="15"/><line class="cls-2" x1="87" x2="74.67" y1="2" y2="17"/><line class="cls-2" x1="93" x2="75.67" y1="9" y2="16"/><path class="cls-3" d="M84,17A4,4,0,0,0,84.5,12,4,4,0,0,0,79,6.5,4,4,0,0,0,73.5,12,4,4,0,0,0,79,17.5,4,4,0,0,0,84,17Z"/><circle class="cls-4" cx="79" cy="12" r="3"/><path class="cls-5" d="M88.12,100H40.26A12.68,12.68,0,0,0,28,109.51L23.21,128h81.58l-4.86-18.85A12.2,12.2,0,0,0,88.12,100Z"/><rect class="cls-1" height="74.44" rx="34" ry="34" width="68" x="30" y="10.18"/><circle class="cls-6" cx="92" cy="63" r="8"/><circle class="cls-6" cx="36" cy="63" r="8"/><line class="cls-7" x1="64" x2="64" y1="83" y2="105"/><line class="cls-8" x1="64" x2="64" y1="76" y2="90"/><rect class="cls-5" height="75" rx="28" ry="28" width="56" x="36" y="20"/><path class="cls-1" d="M47,65.5a4,4,0,0,1,8,0"/><line class="cls-9" x1="75" x2="81" y1="54" y2="55"/><path class="cls-1" d="M73,65.5a4,4,0,0,1,8,0"/><line class="cls-9" x1="47" x2="53" y1="55" y2="54"/><path class="cls-1" d="M94.5,43c-.09-15.83-14.11-28.63-30.17-28.63h0c-16,0-30,12.77-30.16,28.56l-.17.23V54.5L36,59h2s0-17,3-17h.09A6,6,0,0,0,47,47H81a6,6,0,0,0,5.91-5H87c3,0,3,17,3,17h2l2-4.5V43Z"/><path class="cls-3" d="M67,77a3,3,0,0,0-3,3,3,3,0,0,0-6,0,6,6,0,0,0,12,0A3,3,0,0,0,67,77Z"/><path class="cls-4" d="M87.74,100A12.68,12.68,0,0,1,100,109.51L104.79,128H51.67L80,100Z"/><path class="cls-3" d="M100,109.51,104.79,128H59.67L88,100A12.67,12.67,0,0,1,100,109.51Z"/><path class="cls-4" d="M40.26,100A12.68,12.68,0,0,0,28,109.51L23.21,128H76.33L48,100Z"/><path class="cls-3" d="M28,109.51,23.21,128H68.33L40,100A12.67,12.67,0,0,0,28,109.51Z"/></svg>