<?xml version="1.0" ?><svg data-name="Layer 1" id="Layer_1" viewBox="0 0 128 128" xmlns="http://www.w3.org/2000/svg"><defs><style>.cls-1{fill:#5ab77b;}.cls-2{fill:#133046;}.cls-3{fill:#f7b294;}.cls-4{fill:#3f9e75;}.cls-10,.cls-5{fill:none;stroke-linecap:round;stroke-linejoin:round;}.cls-5{stroke:#f7b294;stroke-width:20px;}.cls-6{fill:#f7ccad;}.cls-7{fill:#892536;}.cls-8{fill:#e8344a;}.cls-9{fill:#fff;}.cls-10{stroke:#20455b;stroke-width:4px;}.cls-11{fill:#1b4876;}</style></defs><title/><path class="cls-1" d="M90.15,97H37.85a14,14,0,0,0-13.56,10.5L19,128h90l-5.29-20.5A14,14,0,0,0,90.15,97Z"/><path class="cls-2" d="M93.51,15,64,3,34.49,15A4,4,0,0,0,32,18.69V53H96V18.69A4,4,0,0,0,93.51,15Z"/><circle class="cls-3" cx="92" cy="59" r="8"/><circle class="cls-3" cx="36" cy="59" r="8"/><path class="cls-4" d="M80.25,97a16.25,16.25,0,0,1-32.5,0"/><line class="cls-5" x1="64" x2="64" y1="79" y2="97"/><rect class="cls-6" height="75" rx="28" ry="28" width="56" x="36" y="16"/><path class="cls-7" d="M64,80A14,14,0,0,1,50,66H78A14,14,0,0,1,64,80Z"/><path class="cls-8" d="M64,80a14,14,0,0,0,9.71-3.94A9.17,9.17,0,0,0,66.88,73a9.27,9.27,0,0,0-8.58,5.78A13.91,13.91,0,0,0,64,80Z"/><path class="cls-9" d="M55,66H73a0,0,0,0,1,0,0v2a2,2,0,0,1-2,2H57a2,2,0,0,1-2-2V66A0,0,0,0,1,55,66Z"/><path class="cls-2" d="M64,11,32,21V39h4.15a13.93,13.93,0,0,1,4.27-8.2,11.24,11.24,0,0,1,13.75-1.12l3.92,2.52a11,11,0,0,0,11.82,0l4-2.54A11.14,11.14,0,0,1,87,30.29,14,14,0,0,1,91.86,39H96V21Z"/><circle class="cls-2" cx="51" cy="55" r="3"/><circle class="cls-2" cx="77" cy="55" r="3"/><line class="cls-10" x1="75" x2="81" y1="44" y2="45"/><line class="cls-10" x1="47" x2="53" y1="45" y2="44"/><path class="cls-11" d="M93.51,22,64,10v4L93.51,26A4,4,0,0,1,96,29.69v-4A4,4,0,0,0,93.51,22Z"/></svg>